<?xml version="1.0" encoding="UTF-8"?>
<svg id="Layer_1" data-name="Layer 1" xmlns="http://www.w3.org/2000/svg" viewBox="0 0 998.17 136.64">
  <defs>
    <style>
      .cls-1 {
        fill: #525252;
        font-family: ArialMT, Arial;
        font-size: 40px;
      }

      .cls-2 {
        letter-spacing: -.11em;
      }

      .cls-3 {
        fill: #404041;
        fill-rule: evenodd;
      }

      .cls-3, .cls-4 {
        stroke-width: 0px;
      }

      .cls-4 {
        fill: #2e368e;
      }
    </style>
  </defs>
  <g>
    <path class="cls-3" d="m27,96.77c.17.69.36,2.44,1.05,3.97,2.55,5.67,7.77,8.25,14.24,7.25,5.48-.85,8.5-4.87,9.55-12.71,1.21-9.04,7.68-14.97,16.14-14.81,7.62.15,14.47,6.96,15.34,15.25.86,8.19,4.14,11.52,12.21,12.44,8.21.93,12.97,4.88,15.18,12.74.68,2.4,1.05,4.89,1.67,7.3,1.47,5.62,8.28,9.68,13.46,8.08,7.16-2.21,10-6.66,9.27-14.5-.58-6.19-3.77-8.95-11.36-9.82-9.56-1.1-14.48-5.94-15.61-15.37-.92-7.63-4.29-11.09-11.86-12.45-2.25-.41-4.47-1.15-6.63-1.95-8.72-3.21-12.23-12.48-8.06-20.77,3.11-6.18,8.79-8.31,14.93-9.55,7.64-1.54,10.28-3.98,11.53-11.43,1.88-11.22,5.17-14.42,16.19-15.73,5.24-.62,9.04-3.18,10.71-8.3,2.28-6.99-1.5-14.14-8.27-15.91-7.4-1.94-12.99,1.71-14.7,9.57-2.56,11.82-6.65,16.38-15.9,17.79-8.98,1.36-11.58,4.07-12.78,13.33-1.65,12.77-15.32,18.57-25.63,10.95-4.89-3.62-5.29-9.01-6.29-14.33-1.28-6.77-6.71-10.48-13.43-9.67-6.41.77-10.9,5.75-10.91,12.1-.02,6.13,4.45,10.74,11.21,11.56,9.53,1.16,16.75,7.93,17.01,15.94.26,7.93-6.15,14.56-15.8,16.34-.75.14-1.53.13-2.29.25-5.87.88-10.01,5.54-10.18,12.43Zm139.99-28.64c-.05,6.92-3.67,12.02-10.34,14.3-2.34.8-4.79,1.39-7.23,1.81-5.61.96-9.53,4.74-10.26,10.13-.68,5.06,2.45,10.37,7.2,12.63,6.48,3.08,15.63-.17,17.14-8.78,2.52-14.27,4.46-15.64,18.01-17.98,6.42-1.11,10.31-6.01,10.04-12.63-.25-6.25-4.84-11.15-11.14-11.88-10.39-1.21-14.12-4.55-16.3-14.54-.41-1.88-.76-3.79-1.42-5.58-.5-1.38-1.21-2.83-2.21-3.87-3.97-4.13-10.04-4.8-15.38-1.89-4.36,2.37-6.95,8.01-5.85,12.72,1.29,5.51,5.51,8.84,11.67,9.23,8.66.54,16.11,8.13,16.04,16.34Zm-143.9-.39c-.15-7.38-4.8-12.12-11.78-11.99C4.23,55.89-.17,60.94,0,68.73c.16,7.16,4.58,11.64,11.42,11.58,7.45-.06,11.82-4.78,11.66-12.57Zm88.96.25c-.06,7.51,4.3,12.27,11.33,12.33,6.41.05,12.03-4.86,12.21-10.69.24-7.84-4.59-13.66-11.52-13.86-7.29-.21-11.96,4.52-12.02,12.23Z"/>
    <path class="cls-3" d="m27,96.77c.16-6.89,4.31-11.55,10.18-12.43.76-.11,1.54-.11,2.29-.25,9.65-1.78,16.06-8.41,15.8-16.34-.26-8.02-7.48-14.78-17.01-15.94-6.76-.82-11.23-5.43-11.21-11.56.02-6.35,4.51-11.33,10.91-12.1,6.73-.81,12.16,2.9,13.43,9.67,1,5.32,1.4,10.71,6.29,14.33,10.31,7.63,23.98,1.82,25.63-10.95,1.2-9.26,3.8-11.97,12.78-13.33,9.26-1.4,13.34-5.97,15.9-17.79,1.71-7.87,7.3-11.51,14.7-9.57,6.77,1.77,10.55,8.93,8.27,15.91-1.67,5.13-5.47,7.68-10.71,8.3-11.02,1.31-14.31,4.51-16.19,15.73-1.25,7.44-3.89,9.88-11.53,11.43-6.14,1.24-11.82,3.37-14.93,9.55-4.17,8.29-.66,17.56,8.06,20.77,2.16.79,4.37,1.54,6.63,1.95,7.56,1.36,10.94,4.82,11.86,12.45,1.13,9.42,6.05,14.27,15.61,15.37,7.59.88,10.77,3.63,11.36,9.82.74,7.84-2.11,12.3-9.27,14.5-5.18,1.6-11.99-2.47-13.46-8.08-.63-2.41-1-4.9-1.67-7.3-2.21-7.86-6.98-11.81-15.18-12.74-8.07-.91-11.35-4.25-12.21-12.44-.87-8.29-7.73-15.1-15.34-15.25-8.46-.17-14.93,5.77-16.14,14.81-1.05,7.84-4.07,11.86-9.55,12.71-6.46,1-11.69-1.58-14.24-7.25-.69-1.53-.87-3.28-1.05-3.97Z"/>
    <path class="cls-3" d="m166.99,68.14c.06-8.21-7.38-15.8-16.04-16.34-6.17-.39-10.39-3.72-11.67-9.23-1.1-4.71,1.49-10.35,5.85-12.72,5.34-2.91,11.41-2.24,15.38,1.89,1,1.04,1.71,2.49,2.21,3.87.65,1.79,1.01,3.7,1.42,5.58,2.17,9.99,5.9,13.33,16.3,14.54,6.3.73,10.89,5.63,11.14,11.88.27,6.63-3.63,11.53-10.04,12.63-13.56,2.35-15.5,3.71-18.01,17.98-1.51,8.61-10.66,11.86-17.14,8.78-4.75-2.26-7.88-7.57-7.2-12.63.73-5.39,4.65-9.17,10.26-10.13,2.44-.42,4.88-1.01,7.23-1.81,6.67-2.28,10.28-7.38,10.34-14.3Z"/>
    <path class="cls-3" d="m23.09,67.75c.16,7.79-4.21,12.5-11.66,12.57-6.84.06-11.26-4.42-11.42-11.58-.17-7.79,4.22-12.84,11.3-12.97,6.98-.13,11.63,4.61,11.78,11.99Z"/>
    <path class="cls-3" d="m112.05,67.99c.07-7.7,4.73-12.44,12.02-12.23,6.93.2,11.76,6.02,11.52,13.86-.18,5.83-5.8,10.74-12.21,10.69-7.02-.06-11.39-4.81-11.33-12.33Z"/>
  </g>
  <g>
    <path class="cls-4" d="m267.31,21.9c2.96,0,5.89.27,8.78.81,2.78.58,5.5,1.44,8.15,2.6,2.74,1.23,5.24,2.6,7.52,4.1,1.39.97,2.66,1.91,3.81,2.84l-8.26,8.27c-2.35-1.93-4.92-3.49-7.69-4.68-3.81-1.58-7.88-2.37-12.19-2.37s-8.4.79-12.26,2.37c-3.82,1.66-7.24,4.01-10.29,7.05-3.08,3.08-5.42,6.53-7,10.35h-.06c-1.54,3.77-2.31,7.86-2.31,12.25s.77,8.58,2.31,12.31c1.62,3.82,3.97,7.25,7.05,10.29,2.97,3.08,6.4,5.41,10.29,7,3.85,1.58,7.94,2.37,12.26,2.37s8.42-.79,12.31-2.37c2.89-1.19,5.45-2.74,7.69-4.62l8.21,8.27c-1.16.96-2.43,1.91-3.81,2.83-2.43,1.66-4.93,3.02-7.51,4.1-2.78,1.19-5.5,2.05-8.15,2.54-2.77.58-5.7.87-8.79.87-5.97,0-11.54-1.06-16.71-3.18-5.17-2.12-9.86-5.32-14.1-9.59-4.35-4.32-7.55-9.04-9.6-14.16-2.12-5.01-3.18-10.58-3.18-16.7s1.06-11.66,3.18-16.7c2.04-5.05,5.24-9.79,9.6-14.22,4.31-4.32,9.02-7.54,14.1-9.65,3.74-1.54,7.75-2.52,12.03-2.95h4.62Z"/>
    <path class="cls-4" d="m303.72,22.36h11.5v85.95h-11.5V22.36Z"/>
    <path class="cls-4" d="m361.41,22.36h19.3v11.39h-22.95v74.56h-11.5V33.74h-22.94v-11.39h38.09Z"/>
    <path class="cls-4" d="m437.71,22.18v11.45h-37.4v26.01h28.03v11.44h-28.03v26.01h37.4v11.44h-48.9V22.18h48.9Z"/>
    <path class="cls-4" d="m485.86,21.9c2.96,0,5.89.27,8.78.81,2.77.58,5.49,1.44,8.15,2.6,2.74,1.23,5.24,2.6,7.52,4.1,1.39.97,2.66,1.91,3.82,2.84l-8.27,8.27c-2.36-1.93-4.92-3.49-7.69-4.68-3.81-1.58-7.88-2.37-12.19-2.37s-8.4.79-12.26,2.37c-3.81,1.66-7.24,4.01-10.29,7.05-3.08,3.08-5.42,6.53-7,10.35h-.06c-1.54,3.77-2.31,7.86-2.31,12.25s.77,8.58,2.31,12.31c1.62,3.82,3.97,7.25,7.05,10.29,2.97,3.08,6.4,5.41,10.29,7,3.85,1.58,7.94,2.37,12.26,2.37s8.42-.79,12.31-2.37c2.89-1.19,5.45-2.74,7.69-4.62l8.21,8.27c-1.16.96-2.43,1.91-3.81,2.83-2.43,1.66-4.93,3.02-7.52,4.1-2.77,1.19-5.49,2.05-8.15,2.54-2.77.58-5.7.87-8.78.87-5.97,0-11.54-1.06-16.71-3.18-5.16-2.12-9.86-5.32-14.1-9.59-4.35-4.32-7.55-9.04-9.6-14.16-2.12-5.01-3.18-10.58-3.18-16.7s1.06-11.66,3.18-16.7c2.04-5.05,5.24-9.79,9.6-14.22,4.31-4.32,9.02-7.54,14.1-9.65,3.74-1.54,7.75-2.52,12.03-2.95h4.62Z"/>
  </g>
  <text class="cls-1" transform="translate(557.54 56.71)"><tspan x="0" y="0">Cámara de Innovación y </tspan><tspan class="cls-2" x="0" y="48">T</tspan><tspan x="20" y="48">ecnología Ecuatoriana</tspan></text>
</svg>