<?xml version="1.0" encoding="UTF-8"?>
<svg id="Layer_1" data-name="Layer 1" xmlns="http://www.w3.org/2000/svg" viewBox="0 0 792 774">
  <defs>
    <style>
      .cls-1 {
        fill: #231f20;
        stroke: #231f20;
        stroke-miterlimit: 10;
      }

      .cls-2 {
        fill: #2e368e;
        fill-rule: evenodd;
      }

      .cls-2, .cls-3 {
        stroke-width: 0px;
      }

      .cls-3 {
        fill: #525252;
      }
    </style>
  </defs>
  <path class="cls-2" d="m93.66,433.61c.28,1.13.58,4.01,1.71,6.51,4.18,9.29,12.73,13.52,23.32,11.87,8.98-1.39,13.93-7.97,15.65-20.82,1.99-14.81,12.58-24.52,26.44-24.25,12.47.24,23.7,11.4,25.13,24.98,1.41,13.41,6.78,18.88,20,20.37,13.44,1.52,21.24,8,24.87,20.87,1.11,3.93,1.72,8.01,2.74,11.96,2.4,9.2,13.56,15.85,22.04,13.24,11.72-3.61,16.39-10.92,15.18-23.76-.95-10.14-6.17-14.65-18.6-16.09-15.66-1.8-23.72-9.74-25.57-25.17-1.5-12.5-7.03-18.16-19.42-20.39-3.69-.67-7.32-1.89-10.86-3.19-14.28-5.25-20.04-20.44-13.2-34.02,5.1-10.13,14.4-13.61,24.46-15.64,12.52-2.52,16.83-6.52,18.88-18.72,3.09-18.38,8.48-23.62,26.53-25.77,8.58-1.02,14.81-5.21,17.55-13.6,3.73-11.45-2.46-23.16-13.54-26.07-12.12-3.18-21.27,2.79-24.07,15.68-4.2,19.36-10.89,26.83-26.05,29.13-14.71,2.23-18.97,6.67-20.94,21.84-2.7,20.91-25.1,30.42-41.98,17.93-8-5.93-8.66-14.76-10.3-23.47-2.09-11.09-10.98-17.17-22-15.84-10.49,1.26-17.85,9.42-17.88,19.82-.03,10.04,7.3,17.59,18.36,18.93,15.61,1.9,27.44,12.98,27.86,26.11.42,12.99-10.07,23.85-25.88,26.77-1.23.23-2.51.22-3.76.4-9.61,1.44-16.4,9.08-16.67,20.36Zm229.3-46.91c-.09,11.33-6.01,19.69-16.93,23.43-3.84,1.31-7.84,2.28-11.84,2.97-9.2,1.58-15.62,7.77-16.81,16.6-1.12,8.29,4.01,16.98,11.8,20.69,10.61,5.05,25.6-.28,28.08-14.37,4.12-23.38,7.3-25.62,29.51-29.46,10.51-1.82,16.88-9.84,16.45-20.7-.41-10.24-7.93-18.27-18.24-19.47-17.02-1.99-23.13-7.45-26.69-23.81-.67-3.07-1.25-6.2-2.32-9.14-.82-2.27-1.98-4.63-3.62-6.34-6.5-6.77-16.44-7.87-25.19-3.1-7.14,3.89-11.39,13.12-9.58,20.83,2.11,9.03,9.02,14.49,19.12,15.12,14.18.89,26.38,13.31,26.28,26.76Zm-235.7-.64c-.25-12.09-7.87-19.85-19.3-19.64-11.59.22-18.8,8.49-18.51,21.25.27,11.73,7.5,19.07,18.71,18.97,12.21-.11,19.36-7.82,19.1-20.59Zm145.71.4c-.1,12.31,7.05,20.1,18.55,20.19,10.5.09,19.7-7.96,20-17.51.4-12.85-7.51-22.37-18.86-22.71-11.95-.35-19.58,7.41-19.69,20.03Z"/>
  <g>
    <g>
      <path class="cls-1" d="m450.34,292.75c3.45,0,6.86.31,10.22.94,3.23.67,6.4,1.68,9.49,3.03,3.19,1.43,6.1,3.03,8.75,4.77,1.61,1.12,3.09,2.22,4.44,3.3l-9.62,9.62c-2.73-2.24-5.72-4.06-8.95-5.45-4.44-1.84-9.17-2.76-14.19-2.76s-9.78.92-14.27,2.76c-4.44,1.93-8.43,4.66-11.97,8.21-3.59,3.59-6.3,7.6-8.14,12.04h-.07c-1.79,4.39-2.69,9.15-2.69,14.26s.9,9.98,2.69,14.33c1.88,4.44,4.62,8.43,8.21,11.98,3.46,3.59,7.45,6.3,11.97,8.14,4.49,1.84,9.24,2.76,14.27,2.76s9.8-.92,14.33-2.76c3.36-1.39,6.35-3.19,8.95-5.38l9.55,9.62c-1.34,1.12-2.83,2.22-4.44,3.3-2.83,1.93-5.74,3.52-8.75,4.78-3.23,1.39-6.4,2.38-9.49,2.96-3.23.67-6.64,1.01-10.23,1.01-6.95,0-13.44-1.23-19.45-3.7-6.01-2.47-11.48-6.19-16.41-11.17-5.07-5.02-8.79-10.52-11.17-16.48-2.47-5.83-3.7-12.31-3.7-19.44s1.23-13.57,3.7-19.44c2.38-5.88,6.1-11.39,11.17-16.55,5.02-5.02,10.5-8.77,16.41-11.24,4.35-1.79,9.02-2.94,14-3.43h5.38Z"/>
      <path class="cls-1" d="m492.72,293.28h13.39v100.04h-13.39v-100.04Z"/>
      <path class="cls-1" d="m559.87,293.28h22.47v13.25h-26.71v86.79h-13.38v-86.79h-26.71v-13.25h44.34Z"/>
      <path class="cls-1" d="m648.67,293.08v13.32h-43.53v30.27h32.63v13.32h-32.63v30.28h43.53v13.32h-56.92v-100.52h56.92Z"/>
      <path class="cls-1" d="m704.72,292.75c3.45,0,6.86.31,10.22.94,3.23.67,6.39,1.68,9.49,3.03,3.19,1.43,6.1,3.03,8.75,4.77,1.61,1.12,3.09,2.22,4.44,3.3l-9.62,9.62c-2.74-2.24-5.72-4.06-8.95-5.45-4.44-1.84-9.17-2.76-14.19-2.76s-9.78.92-14.26,2.76c-4.44,1.93-8.43,4.66-11.97,8.21-3.59,3.59-6.3,7.6-8.14,12.04h-.07c-1.79,4.39-2.69,9.15-2.69,14.26s.9,9.98,2.69,14.33c1.88,4.44,4.62,8.43,8.21,11.98,3.46,3.59,7.45,6.3,11.97,8.14,4.49,1.84,9.24,2.76,14.26,2.76s9.8-.92,14.33-2.76c3.37-1.39,6.35-3.19,8.95-5.38l9.55,9.62c-1.34,1.12-2.83,2.22-4.44,3.3-2.83,1.93-5.74,3.52-8.75,4.78-3.23,1.39-6.39,2.38-9.49,2.96-3.23.67-6.64,1.01-10.22,1.01-6.95,0-13.44-1.23-19.45-3.7-6.01-2.47-11.48-6.19-16.41-11.17-5.07-5.02-8.79-10.52-11.17-16.48-2.47-5.83-3.7-12.31-3.7-19.44s1.23-13.57,3.7-19.44c2.38-5.88,6.1-11.39,11.17-16.55,5.02-5.02,10.5-8.77,16.41-11.24,4.35-1.79,9.02-2.94,14-3.43h5.38Z"/>
    </g>
    <g>
      <path class="cls-3" d="m417.53,423.74l2.94.74c-.62,2.41-1.72,4.25-3.32,5.52-1.6,1.27-3.55,1.9-5.87,1.9s-4.34-.49-5.83-1.46c-1.5-.97-2.64-2.38-3.42-4.23-.78-1.85-1.17-3.83-1.17-5.95,0-2.31.44-4.33,1.32-6.05s2.14-3.03,3.77-3.92c1.63-.89,3.42-1.34,5.38-1.34,2.22,0,4.09.56,5.6,1.7,1.51,1.13,2.57,2.72,3.16,4.77l-2.89.68c-.51-1.62-1.26-2.79-2.24-3.53s-2.21-1.11-3.69-1.11c-1.71,0-3.13.41-4.28,1.23s-1.95,1.91-2.41,3.29c-.46,1.38-.7,2.8-.7,4.26,0,1.89.27,3.54.83,4.94.55,1.41,1.41,2.46,2.57,3.16,1.16.7,2.42,1.04,3.77,1.04,1.65,0,3.04-.47,4.18-1.42,1.14-.95,1.91-2.36,2.32-4.22Z"/>
      <path class="cls-3" d="m434.22,429.54c-1.01.86-1.98,1.46-2.91,1.82-.93.35-1.93.53-3,.53-1.77,0-3.12-.43-4.07-1.29-.95-.86-1.42-1.97-1.42-3.31,0-.79.18-1.51.54-2.16.36-.65.83-1.17,1.41-1.57.58-.39,1.23-.69,1.96-.89.54-.14,1.34-.28,2.42-.41,2.2-.26,3.82-.58,4.86-.94,0-.37.01-.61.01-.71,0-1.11-.26-1.89-.77-2.35-.7-.62-1.73-.92-3.1-.92-1.28,0-2.23.23-2.84.67-.61.45-1.06,1.24-1.35,2.38l-2.66-.36c.24-1.14.64-2.06,1.2-2.76s1.36-1.24,2.41-1.62c1.05-.38,2.27-.57,3.65-.57s2.49.16,3.35.48c.86.32,1.49.73,1.89,1.22.4.49.69,1.11.85,1.85.09.46.14,1.3.14,2.51v3.63c0,2.53.06,4.14.17,4.81.12.67.35,1.31.69,1.93h-2.85c-.28-.57-.46-1.23-.54-1.98Zm-.23-6.09c-.99.4-2.47.75-4.45,1.03-1.12.16-1.91.34-2.38.54-.46.2-.82.5-1.08.89-.25.39-.38.82-.38,1.29,0,.73.27,1.33.83,1.82.55.48,1.35.73,2.41.73s1.98-.23,2.8-.69c.82-.46,1.42-1.09,1.8-1.88.29-.62.44-1.52.44-2.72v-1Zm-5.3-10l2.01-4.24h3.57l-3.33,4.24h-2.26Z"/>
      <path class="cls-3" d="m440.97,431.52v-16.08h2.44v2.25c.5-.79,1.18-1.42,2.01-1.9.84-.48,1.79-.72,2.86-.72,1.19,0,2.17.25,2.93.74.76.5,1.3,1.19,1.61,2.07,1.27-1.88,2.93-2.82,4.96-2.82,1.59,0,2.82.44,3.68,1.32.86.88,1.29,2.24,1.29,4.08v11.04h-2.71v-10.13c0-1.09-.09-1.87-.26-2.35-.18-.48-.5-.87-.96-1.16-.46-.29-1.01-.44-1.63-.44-1.13,0-2.07.38-2.82,1.13-.75.75-1.12,1.95-1.12,3.61v9.34h-2.72v-10.44c0-1.21-.22-2.12-.67-2.72-.44-.61-1.17-.91-2.18-.91-.77,0-1.48.2-2.13.61-.65.4-1.12.99-1.42,1.77-.29.78-.44,1.9-.44,3.36v8.34h-2.72Z"/>
      <path class="cls-3" d="m477.29,429.54c-1.01.86-1.98,1.46-2.91,1.82-.93.35-1.93.53-3,.53-1.77,0-3.12-.43-4.07-1.29-.95-.86-1.42-1.97-1.42-3.31,0-.79.18-1.51.54-2.16.36-.65.83-1.17,1.41-1.57.58-.39,1.23-.69,1.96-.89.54-.14,1.34-.28,2.42-.41,2.2-.26,3.82-.58,4.86-.94,0-.37.01-.61.01-.71,0-1.11-.26-1.89-.77-2.35-.7-.62-1.73-.92-3.1-.92-1.28,0-2.23.23-2.84.67-.61.45-1.06,1.24-1.35,2.38l-2.66-.36c.24-1.14.64-2.06,1.2-2.76s1.36-1.24,2.41-1.62c1.05-.38,2.27-.57,3.65-.57s2.49.16,3.35.48c.86.32,1.49.73,1.89,1.22.4.49.69,1.11.85,1.85.09.46.14,1.3.14,2.51v3.63c0,2.53.06,4.14.17,4.81.12.67.35,1.31.69,1.93h-2.85c-.28-.57-.46-1.23-.54-1.98Zm-.23-6.09c-.99.4-2.47.75-4.45,1.03-1.12.16-1.91.34-2.38.54-.46.2-.82.5-1.08.89-.25.39-.38.82-.38,1.29,0,.73.27,1.33.83,1.82.55.48,1.35.73,2.41.73s1.98-.23,2.8-.69c.82-.46,1.42-1.09,1.8-1.88.29-.62.44-1.52.44-2.72v-1Z"/>
      <path class="cls-3" d="m484.01,431.52v-16.08h2.45v2.44c.63-1.14,1.2-1.89,1.73-2.25.53-.36,1.11-.54,1.75-.54.92,0,1.85.29,2.8.88l-.94,2.53c-.67-.39-1.33-.59-2-.59-.6,0-1.13.18-1.6.54-.47.36-.81.86-1.01,1.49-.3.97-.45,2.03-.45,3.18v8.42h-2.72Z"/>
      <path class="cls-3" d="m504.85,429.54c-1.01.86-1.98,1.46-2.91,1.82-.93.35-1.93.53-3,.53-1.77,0-3.12-.43-4.07-1.29-.95-.86-1.42-1.97-1.42-3.31,0-.79.18-1.51.54-2.16.36-.65.83-1.17,1.41-1.57.58-.39,1.23-.69,1.96-.89.54-.14,1.34-.28,2.42-.41,2.2-.26,3.82-.58,4.86-.94,0-.37.01-.61.01-.71,0-1.11-.26-1.89-.77-2.35-.7-.62-1.73-.92-3.1-.92-1.28,0-2.23.23-2.84.67-.61.45-1.06,1.24-1.35,2.38l-2.66-.36c.24-1.14.64-2.06,1.2-2.76.55-.7,1.36-1.24,2.41-1.62,1.05-.38,2.27-.57,3.65-.57s2.49.16,3.35.48c.86.32,1.49.73,1.89,1.22.4.49.69,1.11.85,1.85.09.46.14,1.3.14,2.51v3.63c0,2.53.06,4.14.17,4.81.12.67.35,1.31.69,1.93h-2.85c-.28-.57-.46-1.23-.54-1.98Zm-.23-6.09c-.99.4-2.47.75-4.45,1.03-1.12.16-1.91.34-2.38.54-.46.2-.82.5-1.08.89-.25.39-.38.82-.38,1.29,0,.73.27,1.33.83,1.82.55.48,1.35.73,2.41.73s1.98-.23,2.8-.69c.82-.46,1.42-1.09,1.8-1.88.29-.62.44-1.52.44-2.72v-1Z"/>
      <path class="cls-3" d="m530.64,431.52v-2.03c-1.02,1.59-2.52,2.39-4.5,2.39-1.28,0-2.46-.35-3.53-1.06-1.07-.71-1.91-1.69-2.5-2.96-.59-1.27-.89-2.72-.89-4.37s.27-3.06.8-4.37c.54-1.31,1.34-2.31,2.41-3,1.07-.7,2.27-1.04,3.59-1.04.97,0,1.83.2,2.59.61.76.41,1.37.94,1.85,1.6v-7.96h2.71v22.19h-2.53Zm-8.61-8.02c0,2.06.43,3.6,1.3,4.62.87,1.02,1.89,1.53,3.07,1.53s2.2-.49,3.04-1.46c.83-.97,1.25-2.46,1.25-4.46,0-2.2-.42-3.81-1.27-4.84-.85-1.03-1.89-1.54-3.13-1.54s-2.22.5-3.04,1.48c-.81.99-1.22,2.55-1.22,4.68Z"/>
      <path class="cls-3" d="m548.46,426.34l2.82.35c-.44,1.64-1.27,2.92-2.47,3.83-1.2.91-2.74,1.36-4.6,1.36-2.35,0-4.22-.72-5.59-2.17-1.38-1.45-2.07-3.48-2.07-6.09s.7-4.8,2.09-6.3c1.39-1.49,3.2-2.24,5.42-2.24s3.91.73,5.27,2.19c1.36,1.46,2.04,3.52,2.04,6.18,0,.16,0,.4-.01.73h-11.99c.1,1.77.6,3.12,1.5,4.06.9.94,2.02,1.41,3.36,1.41,1,0,1.85-.26,2.56-.79.71-.52,1.27-1.36,1.68-2.51Zm-8.95-4.41h8.98c-.12-1.35-.46-2.37-1.03-3.04-.87-1.05-1.99-1.57-3.38-1.57-1.25,0-2.3.42-3.16,1.26-.85.84-1.32,1.96-1.42,3.36Z"/>
      <path class="cls-3" d="m564.16,431.52v-22.19h2.94v22.19h-2.94Z"/>
      <path class="cls-3" d="m571.92,431.52v-16.08h2.45v2.29c1.18-1.77,2.89-2.65,5.12-2.65.97,0,1.86.17,2.67.52.81.35,1.42.8,1.82,1.37.4.57.69,1.24.85,2.01.1.5.15,1.39.15,2.65v9.88h-2.72v-9.78c0-1.11-.11-1.94-.32-2.49-.21-.55-.59-.99-1.13-1.32-.54-.33-1.17-.49-1.9-.49-1.16,0-2.16.37-3,1.1-.84.74-1.26,2.13-1.26,4.19v8.78h-2.72Z"/>
      <path class="cls-3" d="m589.16,431.52v-16.08h2.45v2.29c1.18-1.77,2.89-2.65,5.12-2.65.97,0,1.86.17,2.67.52.81.35,1.42.8,1.82,1.37.4.57.69,1.24.85,2.01.1.5.15,1.39.15,2.65v9.88h-2.72v-9.78c0-1.11-.11-1.94-.32-2.49-.21-.55-.59-.99-1.13-1.32-.54-.33-1.17-.49-1.9-.49-1.16,0-2.16.37-3,1.1-.84.74-1.26,2.13-1.26,4.19v8.78h-2.72Z"/>
      <path class="cls-3" d="m605.39,423.48c0-2.98.83-5.18,2.48-6.62,1.38-1.19,3.07-1.79,5.06-1.79,2.21,0,4.02.72,5.42,2.17,1.4,1.45,2.1,3.45,2.1,6,0,2.07-.31,3.7-.93,4.88-.62,1.19-1.52,2.11-2.71,2.76-1.19.66-2.48.98-3.88.98-2.25,0-4.07-.72-5.46-2.16-1.39-1.44-2.08-3.52-2.08-6.24Zm2.8,0c0,2.06.45,3.6,1.35,4.62.9,1.02,2.03,1.54,3.39,1.54s2.48-.51,3.38-1.54c.9-1.03,1.35-2.6,1.35-4.71,0-1.99-.45-3.49-1.35-4.52-.9-1.02-2.03-1.54-3.37-1.54s-2.49.51-3.39,1.53c-.9,1.02-1.35,2.56-1.35,4.62Z"/>
      <path class="cls-3" d="m628.11,431.52l-6.12-16.08h2.88l3.45,9.63c.37,1.04.72,2.12,1.03,3.24.24-.85.58-1.87,1.01-3.06l3.57-9.81h2.8l-6.08,16.08h-2.54Z"/>
      <path class="cls-3" d="m649.63,429.54c-1.01.86-1.98,1.46-2.91,1.82-.93.35-1.93.53-3,.53-1.77,0-3.12-.43-4.07-1.29-.95-.86-1.42-1.97-1.42-3.31,0-.79.18-1.51.54-2.16.36-.65.83-1.17,1.41-1.57.58-.39,1.23-.69,1.96-.89.54-.14,1.34-.28,2.42-.41,2.2-.26,3.82-.58,4.86-.94,0-.37.01-.61.01-.71,0-1.11-.26-1.89-.77-2.35-.7-.62-1.73-.92-3.1-.92-1.28,0-2.23.23-2.84.67-.61.45-1.06,1.24-1.35,2.38l-2.66-.36c.24-1.14.64-2.06,1.2-2.76s1.36-1.24,2.41-1.62c1.05-.38,2.27-.57,3.65-.57s2.49.16,3.35.48c.86.32,1.49.73,1.89,1.22.4.49.69,1.11.85,1.85.09.46.14,1.3.14,2.51v3.63c0,2.53.06,4.14.17,4.81.12.67.35,1.31.69,1.93h-2.85c-.28-.57-.46-1.23-.54-1.98Zm-.23-6.09c-.99.4-2.47.75-4.45,1.03-1.12.16-1.91.34-2.38.54-.46.2-.82.5-1.08.89-.25.39-.38.82-.38,1.29,0,.73.27,1.33.83,1.82.55.48,1.35.73,2.41.73s1.98-.23,2.8-.69c.82-.46,1.42-1.09,1.8-1.88.29-.62.44-1.52.44-2.72v-1Z"/>
      <path class="cls-3" d="m666.87,425.63l2.68.35c-.29,1.85-1.04,3.29-2.25,4.34-1.21,1.04-2.69,1.57-4.44,1.57-2.2,0-3.97-.72-5.3-2.16-1.34-1.44-2.01-3.5-2.01-6.18,0-1.74.29-3.25.86-4.56.57-1.3,1.45-2.28,2.63-2.93,1.17-.65,2.45-.98,3.84-.98,1.75,0,3.17.44,4.28,1.32,1.11.88,1.82,2.14,2.13,3.76l-2.65.41c-.25-1.08-.7-1.89-1.34-2.44-.64-.54-1.42-.82-2.32-.82-1.37,0-2.49.49-3.34,1.48-.86.98-1.29,2.54-1.29,4.67s.41,3.73,1.24,4.71c.83.98,1.91,1.47,3.24,1.47,1.07,0,1.96-.33,2.68-.98.72-.66,1.17-1.66,1.36-3.03Z"/>
      <path class="cls-3" d="m671.9,412.46v-3.13h2.72v3.13h-2.72Zm0,19.06v-16.08h2.72v16.08h-2.72Z"/>
      <path class="cls-3" d="m677.76,423.48c0-2.98.83-5.18,2.48-6.62,1.38-1.19,3.07-1.79,5.06-1.79,2.21,0,4.02.72,5.42,2.17,1.4,1.45,2.1,3.45,2.1,6,0,2.07-.31,3.7-.93,4.88-.62,1.19-1.52,2.11-2.71,2.76-1.19.66-2.48.98-3.88.98-2.25,0-4.07-.72-5.46-2.16-1.39-1.44-2.08-3.52-2.08-6.24Zm2.8,0c0,2.06.45,3.6,1.35,4.62.9,1.02,2.03,1.54,3.39,1.54s2.48-.51,3.38-1.54c.9-1.03,1.35-2.6,1.35-4.71,0-1.99-.45-3.49-1.35-4.52-.9-1.02-2.03-1.54-3.37-1.54s-2.49.51-3.39,1.53c-.9,1.02-1.35,2.56-1.35,4.62Zm3.22-10.04l2.01-4.24h3.57l-3.33,4.24h-2.25Z"/>
      <path class="cls-3" d="m696.01,431.52v-16.08h2.45v2.29c1.18-1.77,2.89-2.65,5.12-2.65.97,0,1.86.17,2.67.52.81.35,1.42.8,1.82,1.37.4.57.69,1.24.85,2.01.1.5.15,1.39.15,2.65v9.88h-2.72v-9.78c0-1.11-.11-1.94-.32-2.49-.21-.55-.59-.99-1.13-1.32-.54-.33-1.17-.49-1.9-.49-1.16,0-2.16.37-3,1.1-.84.74-1.26,2.13-1.26,4.19v8.78h-2.72Z"/>
      <path class="cls-3" d="m721.74,437.71l-.3-2.56c.6.16,1.12.24,1.56.24.61,0,1.09-.1,1.45-.3.36-.2.66-.48.89-.85.17-.27.45-.95.83-2.03.05-.15.13-.37.24-.67l-6.1-16.11h2.94l3.35,9.31c.43,1.18.82,2.42,1.17,3.72.31-1.25.69-2.47,1.12-3.66l3.44-9.37h2.72l-6.12,16.35c-.66,1.77-1.16,2.98-1.53,3.65-.48.9-1.04,1.56-1.67,1.98-.62.42-1.37.63-2.24.63-.52,0-1.11-.11-1.76-.33Z"/>
      <path class="cls-3" d="m407.34,468.72v-19.57h-7.31v-2.62h17.59v2.62h-7.34v19.57h-2.94Z"/>
      <path class="cls-3" d="m427.85,463.54l2.82.35c-.44,1.64-1.27,2.92-2.47,3.83-1.2.91-2.74,1.36-4.6,1.36-2.35,0-4.22-.72-5.59-2.17-1.38-1.45-2.07-3.48-2.07-6.09s.7-4.8,2.09-6.3c1.39-1.49,3.2-2.24,5.42-2.24s3.91.73,5.27,2.19c1.36,1.46,2.04,3.52,2.04,6.18,0,.16,0,.4-.01.73h-11.99c.1,1.77.6,3.12,1.5,4.06.9.94,2.02,1.41,3.36,1.41,1,0,1.85-.26,2.56-.79.71-.52,1.27-1.36,1.68-2.51Zm-8.95-4.41h8.98c-.12-1.35-.46-2.37-1.03-3.04-.87-1.05-1.99-1.57-3.38-1.57-1.25,0-2.3.42-3.16,1.26-.85.84-1.32,1.96-1.42,3.36Z"/>
      <path class="cls-3" d="m444.58,462.83l2.68.35c-.29,1.85-1.04,3.29-2.25,4.34-1.21,1.04-2.69,1.57-4.44,1.57-2.2,0-3.97-.72-5.3-2.16-1.34-1.44-2.01-3.5-2.01-6.18,0-1.74.29-3.25.86-4.56.57-1.3,1.45-2.28,2.63-2.93,1.17-.65,2.45-.98,3.84-.98,1.75,0,3.17.44,4.28,1.32,1.11.88,1.82,2.14,2.13,3.76l-2.65.41c-.25-1.08-.7-1.89-1.34-2.44-.64-.54-1.42-.82-2.32-.82-1.37,0-2.49.49-3.34,1.48-.86.98-1.29,2.54-1.29,4.67s.41,3.73,1.24,4.71c.83.98,1.91,1.47,3.24,1.47,1.07,0,1.96-.33,2.68-.98.72-.66,1.17-1.66,1.36-3.03Z"/>
      <path class="cls-3" d="m449.59,468.72v-16.08h2.45v2.29c1.18-1.77,2.89-2.65,5.12-2.65.97,0,1.86.17,2.67.52.81.35,1.42.8,1.82,1.37.4.57.69,1.24.85,2.01.1.5.15,1.39.15,2.65v9.88h-2.72v-9.78c0-1.11-.11-1.94-.32-2.49-.21-.55-.59-.99-1.13-1.32-.54-.33-1.17-.49-1.9-.49-1.16,0-2.16.37-3,1.1-.84.74-1.26,2.13-1.26,4.19v8.78h-2.72Z"/>
      <path class="cls-3" d="m465.81,460.68c0-2.98.83-5.18,2.48-6.62,1.38-1.19,3.07-1.79,5.06-1.79,2.21,0,4.02.72,5.42,2.17,1.4,1.45,2.1,3.45,2.1,6,0,2.07-.31,3.7-.93,4.88-.62,1.19-1.52,2.11-2.71,2.76-1.19.66-2.48.98-3.88.98-2.25,0-4.07-.72-5.46-2.16-1.39-1.44-2.08-3.52-2.08-6.24Zm2.8,0c0,2.06.45,3.6,1.35,4.62.9,1.02,2.03,1.54,3.39,1.54s2.48-.51,3.38-1.54c.9-1.03,1.35-2.6,1.35-4.71,0-1.99-.45-3.49-1.35-4.52-.9-1.02-2.03-1.54-3.37-1.54s-2.49.51-3.39,1.53c-.9,1.02-1.35,2.56-1.35,4.62Z"/>
      <path class="cls-3" d="m484.01,468.72v-22.19h2.72v22.19h-2.72Z"/>
      <path class="cls-3" d="m489.94,460.68c0-2.98.83-5.18,2.48-6.62,1.38-1.19,3.07-1.79,5.06-1.79,2.21,0,4.02.72,5.42,2.17,1.4,1.45,2.1,3.45,2.1,6,0,2.07-.31,3.7-.93,4.88-.62,1.19-1.52,2.11-2.71,2.76-1.19.66-2.48.98-3.88.98-2.25,0-4.07-.72-5.46-2.16-1.39-1.44-2.08-3.52-2.08-6.24Zm2.8,0c0,2.06.45,3.6,1.35,4.62.9,1.02,2.03,1.54,3.39,1.54s2.48-.51,3.38-1.54c.9-1.03,1.35-2.6,1.35-4.71,0-1.99-.45-3.49-1.35-4.52-.9-1.02-2.03-1.54-3.37-1.54s-2.49.51-3.39,1.53c-.9,1.02-1.35,2.56-1.35,4.62Z"/>
      <path class="cls-3" d="m507.69,470.05l2.65.39c.11.82.42,1.41.92,1.79.68.5,1.6.76,2.77.76,1.26,0,2.23-.25,2.92-.76.69-.5,1.15-1.21,1.39-2.12.14-.55.21-1.72.2-3.5-1.19,1.4-2.67,2.1-4.45,2.1-2.21,0-3.92-.8-5.13-2.39-1.21-1.59-1.82-3.51-1.82-5.74,0-1.53.28-2.95.83-4.25.55-1.3,1.36-2.3,2.41-3,1.05-.71,2.29-1.06,3.72-1.06,1.9,0,3.46.77,4.69,2.3v-1.94h2.51v13.9c0,2.5-.25,4.28-.76,5.32-.51,1.04-1.32,1.87-2.42,2.47-1.1.61-2.46.91-4.08.91-1.92,0-3.47-.43-4.65-1.29-1.18-.86-1.75-2.16-1.71-3.9Zm2.25-9.66c0,2.11.42,3.65,1.26,4.62.84.97,1.89,1.45,3.15,1.45s2.3-.48,3.15-1.45c.85-.96,1.27-2.47,1.27-4.53s-.44-3.45-1.31-4.45c-.87-1-1.92-1.5-3.16-1.5s-2.24.49-3.09,1.48c-.85.98-1.27,2.44-1.27,4.38Z"/>
      <path class="cls-3" d="m526.25,450.65l2.01-4.24h3.57l-3.33,4.24h-2.25Zm.14,18.07v-16.08h2.72v16.08h-2.72Z"/>
      <path class="cls-3" d="m544.54,466.74c-1.01.86-1.98,1.46-2.91,1.82-.93.35-1.93.53-3,.53-1.77,0-3.12-.43-4.07-1.29-.95-.86-1.42-1.97-1.42-3.31,0-.79.18-1.51.54-2.16.36-.65.83-1.17,1.41-1.57.58-.39,1.23-.69,1.96-.89.54-.14,1.34-.28,2.42-.41,2.2-.26,3.82-.58,4.86-.94,0-.37.01-.61.01-.71,0-1.11-.26-1.89-.77-2.35-.7-.62-1.73-.92-3.1-.92-1.28,0-2.23.23-2.84.67-.61.45-1.06,1.24-1.35,2.38l-2.66-.36c.24-1.14.64-2.06,1.2-2.76s1.36-1.24,2.41-1.62c1.05-.38,2.27-.57,3.65-.57s2.49.16,3.35.48c.86.32,1.49.73,1.89,1.22.4.49.69,1.11.85,1.85.09.46.14,1.3.14,2.51v3.63c0,2.53.06,4.14.17,4.81.12.67.35,1.31.69,1.93h-2.85c-.28-.57-.46-1.23-.55-1.98Zm-.23-6.09c-.99.4-2.47.75-4.45,1.03-1.12.16-1.91.34-2.38.54-.46.2-.82.5-1.08.89-.25.39-.38.82-.38,1.29,0,.73.27,1.33.83,1.82.55.48,1.35.73,2.41.73s1.98-.23,2.8-.69c.82-.46,1.42-1.09,1.8-1.88.29-.62.44-1.52.44-2.72v-1Z"/>
      <path class="cls-3" d="m560.31,468.72v-22.19h16.04v2.62h-13.11v6.8h12.28v2.6h-12.28v7.55h13.62v2.62h-16.56Z"/>
      <path class="cls-3" d="m591.07,462.83l2.68.35c-.29,1.85-1.04,3.29-2.25,4.34-1.21,1.04-2.69,1.57-4.44,1.57-2.2,0-3.97-.72-5.3-2.16-1.34-1.44-2.01-3.5-2.01-6.18,0-1.74.29-3.25.86-4.56.57-1.3,1.45-2.28,2.63-2.93,1.17-.65,2.45-.98,3.84-.98,1.75,0,3.17.44,4.28,1.32,1.11.88,1.82,2.14,2.13,3.76l-2.65.41c-.25-1.08-.7-1.89-1.34-2.44-.64-.54-1.42-.82-2.32-.82-1.37,0-2.49.49-3.34,1.48-.86.98-1.29,2.54-1.29,4.67s.41,3.73,1.24,4.71c.83.98,1.91,1.47,3.24,1.47,1.07,0,1.96-.33,2.68-.98.72-.66,1.17-1.66,1.36-3.03Z"/>
      <path class="cls-3" d="m606.61,468.72v-2.36c-1.25,1.82-2.95,2.72-5.1,2.72-.95,0-1.83-.18-2.66-.55-.82-.36-1.43-.82-1.83-1.37-.4-.55-.68-1.22-.84-2.02-.11-.54-.17-1.38-.17-2.54v-9.96h2.72v8.92c0,1.42.06,2.38.17,2.88.17.72.54,1.28,1.09,1.69.55.41,1.24.61,2.06.61s1.58-.21,2.3-.63c.72-.42,1.22-.99,1.52-1.71.3-.72.45-1.77.45-3.14v-8.61h2.72v16.08h-2.44Z"/>
      <path class="cls-3" d="m623.81,466.74c-1.01.86-1.98,1.46-2.91,1.82-.93.35-1.93.53-3,.53-1.77,0-3.12-.43-4.07-1.29-.95-.86-1.42-1.97-1.42-3.31,0-.79.18-1.51.54-2.16.36-.65.83-1.17,1.41-1.57.58-.39,1.23-.69,1.96-.89.54-.14,1.34-.28,2.42-.41,2.2-.26,3.82-.58,4.86-.94,0-.37.01-.61.01-.71,0-1.11-.26-1.89-.77-2.35-.7-.62-1.73-.92-3.1-.92-1.28,0-2.23.23-2.84.67-.61.45-1.06,1.24-1.35,2.38l-2.66-.36c.24-1.14.64-2.06,1.2-2.76s1.36-1.24,2.41-1.62c1.05-.38,2.27-.57,3.65-.57s2.49.16,3.35.48c.86.32,1.49.73,1.89,1.22.4.49.69,1.11.85,1.85.09.46.14,1.3.14,2.51v3.63c0,2.53.06,4.14.17,4.81.12.67.35,1.31.69,1.93h-2.85c-.28-.57-.46-1.23-.54-1.98Zm-.23-6.09c-.99.4-2.47.75-4.45,1.03-1.12.16-1.91.34-2.38.54-.46.2-.82.5-1.08.89-.25.39-.38.82-.38,1.29,0,.73.27,1.33.83,1.82.55.48,1.35.73,2.41.73s1.98-.23,2.8-.69c.82-.46,1.42-1.09,1.8-1.88.29-.62.44-1.52.44-2.72v-1Z"/>
      <path class="cls-3" d="m636.51,466.28l.39,2.41c-.77.16-1.45.24-2.06.24-.99,0-1.76-.16-2.3-.47-.54-.31-.93-.72-1.15-1.23-.22-.51-.33-1.58-.33-3.22v-9.25h-2v-2.12h2v-3.98l2.71-1.63v5.62h2.74v2.12h-2.74v9.4c0,.78.05,1.28.14,1.5.1.22.25.4.47.53.22.13.53.2.93.2.3,0,.7-.04,1.2-.11Z"/>
      <path class="cls-3" d="m638.16,460.68c0-2.98.83-5.18,2.48-6.62,1.38-1.19,3.07-1.79,5.06-1.79,2.21,0,4.02.72,5.42,2.17,1.4,1.45,2.1,3.45,2.1,6,0,2.07-.31,3.7-.93,4.88-.62,1.19-1.52,2.11-2.71,2.76-1.19.66-2.48.98-3.88.98-2.25,0-4.07-.72-5.46-2.16-1.39-1.44-2.08-3.52-2.08-6.24Zm2.8,0c0,2.06.45,3.6,1.35,4.62.9,1.02,2.03,1.54,3.39,1.54s2.48-.51,3.38-1.54c.9-1.03,1.35-2.6,1.35-4.71,0-1.99-.45-3.49-1.35-4.52-.9-1.02-2.03-1.54-3.37-1.54s-2.49.51-3.39,1.53c-.9,1.02-1.35,2.56-1.35,4.62Z"/>
      <path class="cls-3" d="m656.38,468.72v-16.08h2.45v2.44c.63-1.14,1.2-1.89,1.73-2.25.53-.36,1.11-.54,1.75-.54.92,0,1.85.29,2.8.88l-.94,2.53c-.67-.39-1.33-.59-2-.59-.6,0-1.13.18-1.6.54-.47.36-.81.86-1.01,1.49-.3.97-.45,2.03-.45,3.18v8.42h-2.72Z"/>
      <path class="cls-3" d="m666.75,449.66v-3.13h2.72v3.13h-2.72Zm0,19.06v-16.08h2.72v16.08h-2.72Z"/>
      <path class="cls-3" d="m684.11,466.74c-1.01.86-1.98,1.46-2.91,1.82-.93.35-1.93.53-3,.53-1.77,0-3.12-.43-4.07-1.29-.95-.86-1.42-1.97-1.42-3.31,0-.79.18-1.51.54-2.16.36-.65.83-1.17,1.41-1.57.58-.39,1.23-.69,1.96-.89.54-.14,1.34-.28,2.42-.41,2.2-.26,3.82-.58,4.86-.94,0-.37.01-.61.01-.71,0-1.11-.26-1.89-.77-2.35-.7-.62-1.73-.92-3.1-.92-1.28,0-2.23.23-2.84.67-.61.45-1.06,1.24-1.35,2.38l-2.66-.36c.24-1.14.64-2.06,1.2-2.76.55-.7,1.36-1.24,2.41-1.62,1.05-.38,2.27-.57,3.65-.57s2.49.16,3.35.48c.86.32,1.49.73,1.89,1.22.4.49.69,1.11.85,1.85.09.46.14,1.3.14,2.51v3.63c0,2.53.06,4.14.17,4.81.12.67.35,1.31.69,1.93h-2.85c-.28-.57-.46-1.23-.54-1.98Zm-.23-6.09c-.99.4-2.47.75-4.45,1.03-1.12.16-1.91.34-2.38.54-.46.2-.82.5-1.08.89-.25.39-.38.82-.38,1.29,0,.73.27,1.33.83,1.82.55.48,1.35.73,2.41.73s1.98-.23,2.8-.69c.82-.46,1.42-1.09,1.8-1.88.29-.62.44-1.52.44-2.72v-1Z"/>
      <path class="cls-3" d="m690.86,468.72v-16.08h2.45v2.29c1.18-1.77,2.89-2.65,5.12-2.65.97,0,1.86.17,2.67.52.81.35,1.42.8,1.82,1.37.4.57.69,1.24.85,2.01.1.5.15,1.39.15,2.65v9.88h-2.72v-9.78c0-1.11-.11-1.94-.32-2.49-.21-.55-.59-.99-1.13-1.32-.54-.33-1.17-.49-1.9-.49-1.16,0-2.16.37-3,1.1-.84.74-1.26,2.13-1.26,4.19v8.78h-2.72Z"/>
      <path class="cls-3" d="m718.59,466.74c-1.01.86-1.98,1.46-2.91,1.82-.93.35-1.93.53-3,.53-1.77,0-3.12-.43-4.07-1.29-.95-.86-1.42-1.97-1.42-3.31,0-.79.18-1.51.54-2.16.36-.65.83-1.17,1.41-1.57.58-.39,1.23-.69,1.96-.89.54-.14,1.34-.28,2.42-.41,2.2-.26,3.82-.58,4.86-.94,0-.37.01-.61.01-.71,0-1.11-.26-1.89-.77-2.35-.7-.62-1.73-.92-3.1-.92-1.28,0-2.23.23-2.84.67-.61.45-1.06,1.24-1.35,2.38l-2.66-.36c.24-1.14.64-2.06,1.2-2.76s1.36-1.24,2.41-1.62c1.05-.38,2.27-.57,3.65-.57s2.49.16,3.35.48c.86.32,1.49.73,1.89,1.22.4.49.69,1.11.85,1.85.09.46.14,1.3.14,2.51v3.63c0,2.53.06,4.14.17,4.81.12.67.35,1.31.69,1.93h-2.85c-.28-.57-.46-1.23-.54-1.98Zm-.23-6.09c-.99.4-2.47.75-4.45,1.03-1.12.16-1.91.34-2.38.54-.46.2-.82.5-1.08.89-.25.39-.38.82-.38,1.29,0,.73.27,1.33.83,1.82.55.48,1.35.73,2.41.73s1.98-.23,2.8-.69c.82-.46,1.42-1.09,1.8-1.88.29-.62.44-1.52.44-2.72v-1Z"/>
    </g>
  </g>
</svg>